<svg width="185" height="145" viewBox="0 0 185 145" fill="none" xmlns="http://www.w3.org/2000/svg">
<g clip-path="url(#clip0_7326_17739)">
<path d="M167.949 0.0947266H0.0716553V107.135H167.949V0.0947266Z" fill="#E6E6E6"/>
<path d="M163.149 13.5202H4.87207V100.802H163.149V13.5202Z" fill="white"/>
<path d="M167.877 0H0V7.10046H167.877V0Z" fill="#0F0F9F"/>
<path d="M5.29996 4.94612C6.03001 4.94612 6.62183 4.35692 6.62183 3.6301C6.62183 2.90329 6.03001 2.31409 5.29996 2.31409C4.56991 2.31409 3.97809 2.90329 3.97809 3.6301C3.97809 4.35692 4.56991 4.94612 5.29996 4.94612Z" fill="white"/>
<path d="M10.3175 4.94612C11.0475 4.94612 11.6393 4.35692 11.6393 3.6301C11.6393 2.90329 11.0475 2.31409 10.3175 2.31409C9.58743 2.31409 8.99561 2.90329 8.99561 3.6301C8.99561 4.35692 9.58743 4.94612 10.3175 4.94612Z" fill="white"/>
<path d="M15.3349 4.94612C16.065 4.94612 16.6568 4.35692 16.6568 3.6301C16.6568 2.90329 16.065 2.31409 15.3349 2.31409C14.6049 2.31409 14.0131 2.90329 14.0131 3.6301C14.0131 4.35692 14.6049 4.94612 15.3349 4.94612Z" fill="white"/>
<path d="M59.9233 22.5764H19.2537V91.746H59.9233V22.5764Z" fill="#E6E6E6"/>
<path d="M100.835 22.5764H66.9436V41.6161H100.835V22.5764Z" fill="#0F0F9F"/>
<path d="M100.835 46.9183H66.9436V67.4041H100.835V46.9183Z" fill="#E6E6E6"/>
<path d="M100.835 72.7063H66.9436V91.746H100.835V72.7063Z" fill="#E6E6E6"/>
<path d="M148.767 22.5764H108.097V52.7201H148.767V22.5764Z" fill="#E6E6E6"/>
<path d="M148.767 61.6023H108.097V91.746H148.767V61.6023Z" fill="#E6E6E6"/>
<path d="M133.1 54.8857V48.3962C133.1 46.0899 134.02 43.878 135.658 42.2472C137.296 40.6164 139.518 39.7003 141.834 39.7003C144.151 39.7003 146.372 40.6164 148.011 42.2472C149.649 43.878 150.569 46.0899 150.569 48.3962V54.8857C150.569 55.1954 150.445 55.4923 150.225 55.7113C150.005 55.9303 149.707 56.0535 149.396 56.0538H134.273C133.962 56.0535 133.664 55.9303 133.444 55.7113C133.224 55.4923 133.1 55.1954 133.1 54.8857Z" fill="#2F2E41"/>
<path d="M154.75 139.339L151.669 140.188L146.914 128.762L151.461 127.509L154.75 139.339Z" fill="#FFB8B8"/>
<path d="M149.225 139.918L155.166 138.281L156.202 142.005L146.519 144.673C146.383 144.184 146.345 143.673 146.408 143.169C146.47 142.666 146.632 142.179 146.883 141.738C147.134 141.296 147.47 140.908 147.872 140.596C148.274 140.284 148.734 140.053 149.225 139.918Z" fill="#2F2E41"/>
<path d="M122.631 141.698H119.434L117.914 129.423H122.632L122.631 141.698Z" fill="#FFB8B8"/>
<path d="M117.151 140.789H123.316V144.653H113.269C113.269 144.146 113.37 143.643 113.565 143.175C113.76 142.706 114.046 142.28 114.406 141.921C114.767 141.562 115.195 141.277 115.666 141.083C116.137 140.889 116.641 140.789 117.151 140.789Z" fill="#2F2E41"/>
<path d="M118.776 73.0973C119.005 73.4039 119.297 73.657 119.635 73.8388C119.972 74.0205 120.345 74.1264 120.727 74.1492C121.11 74.1719 121.493 74.1108 121.849 73.9702C122.205 73.8296 122.526 73.6129 122.79 73.3354L131.287 77.1404L130.514 72.3819L122.563 69.4982C122.066 69.089 121.435 68.8757 120.79 68.8987C120.145 68.9218 119.531 69.1795 119.064 69.6232C118.597 70.0668 118.31 70.6655 118.257 71.3058C118.204 71.9461 118.389 72.5835 118.776 73.0973H118.776Z" fill="#FFB8B8"/>
<path d="M136.432 101.713C133.762 101.713 130.998 101.317 128.675 100.14C127.442 99.5267 126.349 98.6672 125.465 97.6146C124.581 96.562 123.924 95.3391 123.537 94.0224C122.326 90.2068 123.852 86.4582 125.328 82.8332C126.243 80.5868 127.107 78.4652 127.331 76.3738L127.409 75.6313C127.758 72.2963 128.06 69.4161 129.729 68.3358C130.594 67.7759 131.757 67.7439 133.285 68.238L147.637 72.8796L147.11 100.003L147.023 100.032C146.947 100.057 141.888 101.713 136.432 101.713Z" fill="#2F2E41"/>
<path d="M133.034 59.7939C133.034 59.7939 140.074 57.7172 145.55 58.496C145.55 58.496 142.421 75.6283 143.464 81.339C144.507 87.0498 125.343 83.5455 129.254 78.0943L130.557 71.6048C130.557 71.6048 127.95 69.009 130.297 65.894L133.034 59.7939Z" fill="#0F0F9F"/>
<path d="M129.572 101.199L120.896 99.5791L123.925 76.3709C124.128 75.723 128.821 61.0185 130.952 60.2229C132.499 59.6804 134.082 59.2427 135.688 58.9129L135.997 58.8514L134.257 61.4495L127.331 77.9729L129.572 101.199Z" fill="#2F2E41"/>
<path d="M125.051 138.854L113.841 136.994L120.132 111.419L129.493 76.4443L129.585 77.0653C129.593 77.1116 130.467 81.6806 143.444 79.6533L143.558 79.6355L143.589 79.7462L159.273 134.917L146.5 137.036L134.849 96.7839L125.051 138.854Z" fill="#2F2E41"/>
<path d="M140.589 105.542L140.596 105.346C140.604 105.128 141.375 83.4441 141.117 74.7236C140.859 65.9734 143.704 58.3957 143.733 58.3202L143.756 58.2593L143.819 58.2413C147.501 57.1943 150.694 60.3194 150.726 60.3511L150.771 60.3957L149.723 69.0076L154.211 100.324L140.589 105.542Z" fill="#2F2E41"/>
<path d="M140.039 55.9027C143.576 55.9027 146.443 53.0483 146.443 49.5272C146.443 46.006 143.576 43.1516 140.039 43.1516C136.503 43.1516 133.635 46.006 133.635 49.5272C133.635 53.0483 136.503 55.9027 140.039 55.9027Z" fill="#FFB8B8"/>
<path d="M131.033 48.9153C131.035 47.0916 131.764 45.3431 133.059 44.0535C134.355 42.7639 136.111 42.0385 137.943 42.0364H139.246C141.078 42.0385 142.835 42.7639 144.13 44.0535C145.425 45.3431 146.154 47.0916 146.156 48.9153V49.0451H143.401L142.461 46.4255L142.273 49.0451H140.849L140.375 47.7234L140.28 49.0451H131.033V48.9153Z" fill="#2F2E41"/>
<path d="M139.409 56.7836C139.28 56.6092 139.203 56.402 139.186 56.1858C139.17 55.9697 139.215 55.7533 139.317 55.5617C140.699 52.9456 142.633 48.1117 140.066 45.1306L139.881 44.9164H147.335V56.0575L140.564 57.2469C140.495 57.259 140.426 57.2651 140.356 57.2652C140.171 57.2652 139.989 57.2215 139.824 57.1378C139.66 57.0541 139.517 56.9327 139.409 56.7836Z" fill="#2F2E41"/>
<path d="M109.399 10.7846C104.183 6.40299 97.8009 3.6251 91.0283 2.78896C84.2557 1.95283 77.3849 3.0945 71.2522 6.07507C65.1194 9.05564 59.989 13.7466 56.4853 19.5771C52.9816 25.4076 51.2556 32.1263 51.5174 38.9155C51.7792 45.7048 54.0175 52.272 57.9599 57.8179C61.9023 63.3638 67.3788 67.6494 73.7231 70.153C80.0673 72.6567 87.0057 73.2706 93.694 71.92C100.382 70.5694 106.532 67.3125 111.395 62.5457L154.578 98.8215C155.235 99.3745 156.085 99.645 156.943 99.5735C157.8 99.502 158.594 99.0944 159.149 98.4403C159.705 97.7861 159.977 96.9391 159.905 96.0855C159.833 95.2319 159.424 94.4417 158.767 93.8887L158.762 93.8847L115.579 57.6089C120.596 50.4411 122.743 41.6666 121.6 33.005C120.456 24.3433 116.105 16.4189 109.399 10.7846ZM106.615 54.1158C103.251 58.085 98.7805 60.9719 93.7683 62.4115C88.7562 63.8511 83.4278 63.7786 78.457 62.2033C73.4863 60.628 69.0963 57.6206 65.8424 53.5614C62.5884 49.5022 60.6165 44.5735 60.1762 39.3986C59.7358 34.2236 60.8467 29.0349 63.3684 24.4886C65.89 19.9422 69.7092 16.2424 74.3429 13.857C78.9767 11.4716 84.2169 10.5078 89.4008 11.0874C94.5848 11.6669 99.4797 13.7639 103.467 17.1131H103.467C106.114 19.3369 108.295 22.058 109.886 25.1211C111.477 28.1842 112.446 31.5292 112.739 34.9652C113.031 38.4012 112.641 41.8609 111.59 45.1468C110.539 48.4326 108.849 51.4803 106.615 54.1158Z" fill="#3F3D56"/>
<path opacity="0.3" d="M69.4482 57.2506C64.3883 52.9997 61.1193 47.0097 60.2902 40.4702C59.461 33.9307 61.1324 27.32 64.9725 21.9506C64.4682 22.4562 63.9807 22.9857 63.5099 23.5392C61.2763 26.1746 59.5859 29.2223 58.5352 32.5082C57.4846 35.794 57.0944 39.2537 57.3868 42.6897C57.6791 46.1257 58.6485 49.4708 60.2393 52.5338C61.8302 55.5969 64.0115 58.318 66.6587 60.5418C69.3059 62.7656 72.3671 64.4485 75.6676 65.4945C78.9681 66.5405 82.4432 66.929 85.8945 66.6379C89.3458 66.3468 92.7057 65.3818 95.7824 63.7979C98.8591 62.2141 101.592 60.0424 103.826 57.407C104.296 56.8528 104.738 56.2853 105.153 55.7044C100.482 60.3763 94.2181 63.1287 87.6036 63.4152C80.9892 63.7016 74.5084 61.5011 69.4482 57.2506Z" fill="black"/>
<path d="M142.095 84.2432C142.468 84.3338 142.856 84.342 143.231 84.2673C143.607 84.1926 143.962 84.0368 144.271 83.8108C144.58 83.5847 144.835 83.294 145.019 82.9592C145.203 82.6243 145.311 82.2534 145.335 81.8725L154.313 79.3916L150.663 76.2238L142.697 79.0654C142.052 79.0673 141.43 79.3048 140.948 79.7329C140.467 80.161 140.16 80.75 140.086 81.3882C140.012 82.0264 140.176 82.6696 140.546 83.1958C140.916 83.722 141.468 84.0946 142.095 84.2432Z" fill="#FFB8B8"/>
<path d="M145.827 82.93L145.281 77.7627L152.78 73.6434L147.891 67.7509L148.688 61.1317L150.675 60.284L150.737 60.3631C151.674 61.5624 159.89 72.1171 159.89 73.4218C159.89 74.7619 158.318 78.6973 156.168 79.7679C154.093 80.8005 146.304 82.8074 145.973 82.8925L145.827 82.93Z" fill="#2F2E41"/>
<path d="M184.739 145H85.3992C85.3301 145 85.2637 144.973 85.2148 144.924C85.1659 144.875 85.1385 144.809 85.1385 144.74C85.1385 144.672 85.1659 144.606 85.2148 144.557C85.2637 144.508 85.3301 144.481 85.3992 144.481H184.739C184.808 144.481 184.875 144.508 184.924 144.557C184.973 144.606 185 144.672 185 144.74C185 144.809 184.973 144.875 184.924 144.924C184.875 144.973 184.808 145 184.739 145Z" fill="#CCCCCC"/>
</g>
<defs>
<clipPath id="clip0_7326_17739">
<rect width="185" height="145" fill="white"/>
</clipPath>
</defs>
</svg>
