<svg width="20" height="12" viewBox="0 0 19 12" fill="none" xmlns="http://www.w3.org/2000/svg">
<path d="M12.0714 10.2857C12.2987 10.2857 12.5168 10.376 12.6775 10.5368C12.8382 10.6975 12.9286 10.9155 12.9286 11.1429C12.9286 11.3702 12.8382 11.5882 12.6775 11.7489C12.5168 11.9097 12.2987 12 12.0714 12H6.92855C6.70123 12 6.48321 11.9097 6.32246 11.7489C6.16172 11.5882 6.07141 11.3702 6.07141 11.1429C6.07141 10.9155 6.16172 10.6975 6.32246 10.5368C6.48321 10.376 6.70123 10.2857 6.92855 10.2857H12.0714ZM15.5 5.14286C15.7273 5.14286 15.9453 5.23316 16.1061 5.39391C16.2668 5.55465 16.3571 5.77267 16.3571 6C16.3571 6.22733 16.2668 6.44535 16.1061 6.60609C15.9453 6.76684 15.7273 6.85714 15.5 6.85714H3.49998C3.27265 6.85714 3.05464 6.76684 2.89389 6.60609C2.73315 6.44535 2.64284 6.22733 2.64284 6C2.64284 5.77267 2.73315 5.55465 2.89389 5.39391C3.05464 5.23316 3.27265 5.14286 3.49998 5.14286H15.5ZM18.0714 0C18.2987 0 18.5168 0.090306 18.6775 0.251051C18.8382 0.411797 18.9286 0.629814 18.9286 0.857143C18.9286 1.08447 18.8382 1.30249 18.6775 1.46323C18.5168 1.62398 18.2987 1.71429 18.0714 1.71429H0.928554C0.701226 1.71429 0.483208 1.62398 0.322462 1.46323C0.161717 1.30249 0.0714111 1.08447 0.0714111 0.857143C0.0714111 0.629814 0.161717 0.411797 0.322462 0.251051C0.483208 0.090306 0.701226 0 0.928554 0H18.0714Z" fill="#BC1414"/>
</svg>
